<mxfile host="65bd71144e" modified="2021-01-17T23:22:44.817Z" agent="5.0 (Macintosh; Intel Mac OS X 11_0_0) AppleWebKit/537.36 (KHTML, like Gecko) Code/1.52.1 Chrome/83.0.4103.122 Electron/9.3.5 Safari/537.36" etag="GfIfFMkLIKmJfugS95Vi" version="13.10.0" type="embed">
    <diagram id="adowA_7ZgtQJZa2UwLhC" name="Page-1">
        <mxGraphModel dx="2538" dy="1118" grid="1" gridSize="10" guides="1" tooltips="1" connect="1" arrows="1" fold="1" page="1" pageScale="1" pageWidth="1600" pageHeight="900" background="none" math="0" shadow="0">
            <root>
                <mxCell id="0"/>
                <mxCell id="1" parent="0"/>
                <mxCell id="14" style="edgeStyle=orthogonalEdgeStyle;rounded=0;orthogonalLoop=1;jettySize=auto;html=1;entryX=0.642;entryY=-0.026;entryDx=0;entryDy=0;entryPerimeter=0;fontSize=17;" parent="1" source="6" target="10" edge="1">
                    <mxGeometry relative="1" as="geometry"/>
                </mxCell>
                <mxCell id="15" value="2. Firebase Token" style="edgeLabel;html=1;align=center;verticalAlign=middle;resizable=0;points=[];fontSize=23;" parent="14" vertex="1" connectable="0">
                    <mxGeometry x="0.7451" y="1" relative="1" as="geometry">
                        <mxPoint as="offset"/>
                    </mxGeometry>
                </mxCell>
                <mxCell id="6" value="&lt;span style=&quot;font-size: 24px&quot;&gt;Firebase&lt;/span&gt;" style="rounded=1;whiteSpace=wrap;html=1;strokeWidth=2;fillWeight=4;hachureGap=8;hachureAngle=45;fillColor=#fa6800;sketch=1;strokeColor=#C73500;fontColor=#ffffff;" parent="1" vertex="1">
                    <mxGeometry x="430" y="40" width="190" height="60" as="geometry"/>
                </mxCell>
                <mxCell id="20" style="edgeStyle=orthogonalEdgeStyle;rounded=0;orthogonalLoop=1;jettySize=auto;html=1;entryX=1;entryY=0.5;entryDx=0;entryDy=0;fontSize=17;" parent="1" source="7" target="8" edge="1">
                    <mxGeometry relative="1" as="geometry"/>
                </mxCell>
                <mxCell id="7" value="&lt;span style=&quot;font-size: 24px&quot;&gt;DB&lt;/span&gt;&lt;br style=&quot;font-size: 24px&quot;&gt;&lt;span style=&quot;font-size: 24px&quot;&gt;MongoDB&lt;/span&gt;" style="shape=datastore;whiteSpace=wrap;html=1;" parent="1" vertex="1">
                    <mxGeometry x="1190" y="160" width="140" height="180" as="geometry"/>
                </mxCell>
                <mxCell id="18" style="edgeStyle=orthogonalEdgeStyle;rounded=0;orthogonalLoop=1;jettySize=auto;html=1;entryX=0;entryY=0.5;entryDx=0;entryDy=0;fontSize=17;" parent="1" source="8" target="7" edge="1">
                    <mxGeometry relative="1" as="geometry"/>
                </mxCell>
                <mxCell id="19" value="&lt;font style=&quot;font-size: 21px&quot;&gt;4. Create / Update Record&lt;/font&gt;" style="edgeLabel;html=1;align=center;verticalAlign=middle;resizable=0;points=[];fontSize=17;" parent="18" vertex="1" connectable="0">
                    <mxGeometry x="-0.2465" y="-4" relative="1" as="geometry">
                        <mxPoint as="offset"/>
                    </mxGeometry>
                </mxCell>
                <mxCell id="23" style="edgeStyle=orthogonalEdgeStyle;rounded=0;orthogonalLoop=1;jettySize=auto;html=1;entryX=1;entryY=0.723;entryDx=0;entryDy=0;entryPerimeter=0;fontSize=17;exitX=0.025;exitY=0.72;exitDx=0;exitDy=0;exitPerimeter=0;" parent="1" source="8" target="10" edge="1">
                    <mxGeometry relative="1" as="geometry">
                        <Array as="points">
                            <mxPoint x="420" y="272"/>
                            <mxPoint x="420" y="494"/>
                        </Array>
                    </mxGeometry>
                </mxCell>
                <mxCell id="24" value="&lt;b&gt;&lt;font style=&quot;font-size: 23px&quot;&gt;6. Auth Token&lt;/font&gt;&lt;/b&gt;" style="edgeLabel;html=1;align=center;verticalAlign=middle;resizable=0;points=[];fontSize=17;" parent="23" vertex="1" connectable="0">
                    <mxGeometry x="0.3207" y="6" relative="1" as="geometry">
                        <mxPoint as="offset"/>
                    </mxGeometry>
                </mxCell>
                <mxCell id="34" style="edgeStyle=orthogonalEdgeStyle;rounded=0;orthogonalLoop=1;jettySize=auto;html=1;entryX=0.799;entryY=0.008;entryDx=0;entryDy=0;entryPerimeter=0;fontSize=38;" edge="1" parent="1" source="8" target="28">
                    <mxGeometry relative="1" as="geometry">
                        <Array as="points">
                            <mxPoint x="600" y="450"/>
                            <mxPoint x="764" y="450"/>
                        </Array>
                    </mxGeometry>
                </mxCell>
                <mxCell id="35" value="&lt;b&gt;&lt;span style=&quot;font-size: 23px&quot;&gt;Auth Token&lt;/span&gt;&lt;br&gt;&lt;font style=&quot;font-size: 16px&quot;&gt;(Refreshed)&lt;/font&gt;&lt;/b&gt;" style="edgeLabel;html=1;align=center;verticalAlign=middle;resizable=0;points=[];fontSize=38;" vertex="1" connectable="0" parent="34">
                    <mxGeometry x="0.2277" y="2" relative="1" as="geometry">
                        <mxPoint as="offset"/>
                    </mxGeometry>
                </mxCell>
                <mxCell id="8" value="&lt;font style=&quot;font-size: 19px&quot;&gt;&lt;font style=&quot;font-size: 19px&quot;&gt;Auth&amp;nbsp;&lt;/font&gt;&lt;span style=&quot;color: rgb(121 , 184 , 255) ; font-weight: bold ; background-color: rgb(36 , 41 , 46) ; font-family: &amp;#34;menlo&amp;#34; , &amp;#34;monaco&amp;#34; , &amp;#34;courier new&amp;#34; , monospace&quot;&gt;ÂµService&lt;/span&gt;&lt;/font&gt;" style="ellipse;whiteSpace=wrap;html=1;strokeWidth=2;fillWeight=2;hachureGap=8;fillStyle=dots;sketch=1;" parent="1" vertex="1">
                    <mxGeometry x="490" y="200" width="160" height="100" as="geometry"/>
                </mxCell>
                <mxCell id="16" style="edgeStyle=orthogonalEdgeStyle;rounded=0;orthogonalLoop=1;jettySize=auto;html=1;fontSize=17;entryX=0;entryY=0.5;entryDx=0;entryDy=0;" parent="1" source="10" target="8" edge="1">
                    <mxGeometry relative="1" as="geometry">
                        <mxPoint x="570" y="320" as="targetPoint"/>
                    </mxGeometry>
                </mxCell>
                <mxCell id="17" value="&lt;font style=&quot;font-size: 21px&quot;&gt;3. Firebase Token&lt;/font&gt;" style="edgeLabel;html=1;align=center;verticalAlign=middle;resizable=0;points=[];fontSize=17;" parent="16" vertex="1" connectable="0">
                    <mxGeometry x="-0.2258" y="1" relative="1" as="geometry">
                        <mxPoint as="offset"/>
                    </mxGeometry>
                </mxCell>
                <mxCell id="21" style="edgeStyle=orthogonalEdgeStyle;rounded=0;orthogonalLoop=1;jettySize=auto;html=1;entryX=0;entryY=0.25;entryDx=0;entryDy=0;fontSize=17;exitX=0.5;exitY=0;exitDx=0;exitDy=0;" parent="1" source="10" target="6" edge="1">
                    <mxGeometry relative="1" as="geometry"/>
                </mxCell>
                <mxCell id="22" value="1. Credentials" style="edgeLabel;html=1;align=center;verticalAlign=middle;resizable=0;points=[];fontSize=23;" parent="21" vertex="1" connectable="0">
                    <mxGeometry x="-0.326" y="2" relative="1" as="geometry">
                        <mxPoint as="offset"/>
                    </mxGeometry>
                </mxCell>
                <mxCell id="10" value="&lt;font&gt;&lt;b style=&quot;font-size: 31px&quot;&gt;Guest&lt;/b&gt;&lt;br&gt;&lt;/font&gt;" style="ellipse;whiteSpace=wrap;html=1;strokeWidth=2;fillWeight=2;hachureGap=8;fillStyle=auto;sketch=1;perimeter=rectanglePerimeter;" parent="1" vertex="1">
                    <mxGeometry x="30" y="400" width="220" height="130" as="geometry"/>
                </mxCell>
                <mxCell id="25" value="Sign Up - Login Story" style="text;html=1;align=center;verticalAlign=middle;resizable=0;points=[];autosize=1;fontSize=38;fontStyle=1" vertex="1" parent="1">
                    <mxGeometry x="1185" y="830" width="400" height="50" as="geometry"/>
                </mxCell>
                <mxCell id="30" value="" style="group" vertex="1" connectable="0" parent="1">
                    <mxGeometry x="540" y="680" width="280" height="130" as="geometry"/>
                </mxCell>
                <mxCell id="31" style="edgeStyle=orthogonalEdgeStyle;rounded=0;orthogonalLoop=1;jettySize=auto;html=1;exitX=0.25;exitY=0;exitDx=0;exitDy=0;fontSize=38;" edge="1" parent="30" source="29" target="28">
                    <mxGeometry relative="1" as="geometry"/>
                </mxCell>
                <mxCell id="29" value="&lt;font style=&quot;font-size: 22px&quot;&gt;&lt;b&gt;Auth Token&lt;/b&gt;&lt;/font&gt;" style="whiteSpace=wrap;html=1;fillColor=none;fontSize=38;" vertex="1" parent="30">
                    <mxGeometry x="110" y="60" width="140" height="60" as="geometry"/>
                </mxCell>
                <mxCell id="28" value="&lt;b&gt;&amp;nbsp; &lt;font style=&quot;font-size: 30px&quot;&gt;User&lt;/font&gt;&lt;/b&gt;" style="shape=parallelogram;perimeter=parallelogramPerimeter;whiteSpace=wrap;html=1;fixedSize=1;fillColor=none;fontSize=38;align=left;" vertex="1" parent="30">
                    <mxGeometry width="280" height="130" as="geometry"/>
                </mxCell>
                <mxCell id="32" style="edgeStyle=orthogonalEdgeStyle;rounded=0;orthogonalLoop=1;jettySize=auto;html=1;entryX=0.5;entryY=1;entryDx=0;entryDy=0;fontSize=38;" edge="1" parent="1" source="28" target="8">
                    <mxGeometry relative="1" as="geometry"/>
                </mxCell>
                <mxCell id="33" value="&lt;b&gt;&lt;font&gt;&lt;span style=&quot;font-size: 23px&quot;&gt;Auth Token&lt;/span&gt;&lt;br&gt;&lt;font style=&quot;font-size: 16px&quot;&gt;(About to expire)&lt;/font&gt;&lt;br&gt;&lt;/font&gt;&lt;/b&gt;" style="edgeLabel;html=1;align=center;verticalAlign=middle;resizable=0;points=[];fontSize=38;" vertex="1" connectable="0" parent="32">
                    <mxGeometry x="-0.6346" y="-4" relative="1" as="geometry">
                        <mxPoint as="offset"/>
                    </mxGeometry>
                </mxCell>
                <mxCell id="37" value="" style="shape=flexArrow;endArrow=classic;startArrow=classic;html=1;fontSize=38;" edge="1" parent="1">
                    <mxGeometry width="50" height="50" relative="1" as="geometry">
                        <mxPoint x="530" y="754" as="sourcePoint"/>
                        <mxPoint x="140" y="540" as="targetPoint"/>
                        <Array as="points">
                            <mxPoint x="140" y="754"/>
                        </Array>
                    </mxGeometry>
                </mxCell>
                <mxCell id="38" value="Logged In" style="text;html=1;align=center;verticalAlign=middle;resizable=0;points=[];autosize=1;fontSize=38;" vertex="1" parent="1">
                    <mxGeometry x="210" y="690" width="180" height="50" as="geometry"/>
                </mxCell>
                <mxCell id="39" value="&lt;font style=&quot;font-size: 22px&quot;&gt;&lt;b&gt;State transition&lt;br&gt;&lt;/b&gt;(Guest -&amp;gt; Authenticated User)&lt;/font&gt;" style="text;html=1;align=center;verticalAlign=middle;resizable=0;points=[];autosize=1;fontSize=38;" vertex="1" parent="1">
                    <mxGeometry x="155" y="740" width="310" height="110" as="geometry"/>
                </mxCell>
            </root>
        </mxGraphModel>
    </diagram>
</mxfile>